<?xml version="1.0" encoding="UTF-8"?>
<!DOCTYPE svg PUBLIC "-//W3C//DTD SVG 1.1//EN" "http://www.w3.org/Graphics/SVG/1.1/DTD/svg11.dtd">
<!-- Creator: CorelDRAW 2020 (64-Bit) -->
<svg xmlns="http://www.w3.org/2000/svg" xml:space="preserve" width="60.1658mm" height="20.7869mm" version="1.1" style="shape-rendering:geometricPrecision; text-rendering:geometricPrecision; image-rendering:optimizeQuality; fill-rule:evenodd; clip-rule:evenodd"
viewBox="0 0 788.5 272.42"
 xmlns:xlink="http://www.w3.org/1999/xlink"
 xmlns:xodm="http://www.corel.com/coreldraw/odm/2003">
 <defs>
  <style type="text/css">
   <![CDATA[
    .fil2 {fill:#276650;fill-rule:nonzero}
    .fil0 {fill:#32DBA0;fill-rule:nonzero}
    .fil3 {fill:#333333;fill-rule:nonzero}
    .fil1 {fill:white;fill-rule:nonzero}
   ]]>
  </style>
 </defs>
 <g id="Capa_x0020_1">
  <metadata id="CorelCorpID_0Corel-Layer"/>
  <path class="fil0" d="M311.57 71.57c0.23,-0.09 0.46,-0.17 0.69,-0.25l0 0c0.69,-0.24 1.38,-0.45 2.07,-0.63l0.01 -0 0.01 -0c0.23,-0.06 0.45,-0.12 0.68,-0.17l0.01 -0c0.23,-0.05 0.45,-0.1 0.68,-0.15l0.01 -0 0.02 -0c0.22,-0.04 0.44,-0.09 0.66,-0.13l0.04 -0.01c0.22,-0.04 0.44,-0.08 0.67,-0.11l0.02 -0c0.23,-0.03 0.45,-0.07 0.68,-0.09l0.02 -0c0.22,-0.03 0.45,-0.05 0.67,-0.08l0.03 -0c0.23,-0.02 0.45,-0.04 0.68,-0.06l0.02 -0c0.93,-0.07 1.85,-0.1 2.78,-0.08l0.02 0c0.23,0 0.45,0.01 0.68,0.02l0.07 0c0.19,0.01 0.38,0.02 0.56,0.03l0.16 0.01c0.19,0.01 0.37,0.02 0.56,0.04l0.08 0.01c0.44,0.04 0.89,0.08 1.33,0.13l0.1 0.01c0.19,0.02 0.39,0.05 0.58,0.08l0.09 0.01c0.44,0.06 0.89,0.13 1.33,0.21l0.06 0.01c0.19,0.04 0.39,0.07 0.58,0.11l0.13 0.02c0.19,0.04 0.39,0.08 0.58,0.12l0.05 0.01c0.44,0.1 0.89,0.2 1.33,0.32l0.06 0.02c0.19,0.05 0.38,0.1 0.57,0.15l0.1 0.03c0.43,0.12 0.87,0.25 1.3,0.38l0.04 0.01c0.2,0.06 0.39,0.12 0.58,0.18l0.1 0.03c0.19,0.06 0.38,0.12 0.57,0.19l0.07 0.02c0.43,0.15 0.85,0.3 1.27,0.46l0.07 0.03c0.18,0.07 0.36,0.14 0.55,0.21l0.11 0.04c0.42,0.16 0.83,0.33 1.25,0.51l0.02 0.01c0.2,0.08 0.39,0.17 0.58,0.25l0.08 0.04c0.19,0.09 0.38,0.17 0.57,0.26l0.03 0.01c0.21,0.09 0.41,0.19 0.62,0.28l0.02 0.01c0.19,0.09 0.37,0.17 0.55,0.26l0.13 0.06c0.16,0.08 0.33,0.16 0.49,0.24l0.09 0.04c0.39,0.19 0.78,0.39 1.16,0.59l0.1 0.05c0.16,0.09 0.32,0.17 0.49,0.26l0.09 0.05c0.18,0.09 0.35,0.19 0.52,0.28l0.04 0.02c0.38,0.21 0.76,0.42 1.13,0.64l0.09 0.05c0.16,0.09 0.32,0.19 0.48,0.28l0.08 0.05c0.18,0.11 0.36,0.22 0.54,0.33l0.01 0.01c0.17,0.11 0.35,0.21 0.52,0.32l0.1 0.06 0.42 0.27 0.12 0.07c0.16,0.1 0.31,0.2 0.47,0.3l0.04 0.02c0.18,0.12 0.36,0.23 0.53,0.35l0.01 0.01c0.16,0.11 0.32,0.21 0.48,0.32l0.1 0.07 0.38 0.26 0.15 0.1c0.15,0.11 0.31,0.21 0.46,0.32l0.01 0c0.15,0.11 0.31,0.22 0.46,0.33l0.12 0.09 0.39 0.28 0.08 0.06c0.15,0.11 0.29,0.21 0.44,0.32l0.02 0.01c0.16,0.12 0.32,0.24 0.48,0.36l0 0c0.15,0.11 0.29,0.22 0.44,0.33l0.08 0.06 0.35 0.27 0.1 0.08c0.14,0.11 0.28,0.22 0.42,0.33 0.3,0.24 0.6,0.48 0.9,0.73l0 0c0.15,0.12 0.3,0.25 0.44,0.37l0 0c0.15,0.12 0.29,0.25 0.44,0.38l0 0c0.15,0.13 0.29,0.25 0.44,0.38l0 0c0.14,0.13 0.29,0.26 0.43,0.39l0 0c0.14,0.13 0.28,0.26 0.43,0.39 0.14,0.13 0.28,0.26 0.42,0.4l0 0c0.14,0.13 0.28,0.27 0.42,0.4l0 0c0.14,0.13 0.28,0.27 0.41,0.4l0 0c0.14,0.13 0.27,0.27 0.41,0.41 0.14,0.14 0.27,0.28 0.4,0.42l0 0c0.13,0.14 0.27,0.28 0.4,0.42 0.13,0.14 0.26,0.28 0.39,0.42 0.13,0.14 0.26,0.29 0.39,0.43l0 0c0.13,0.14 0.26,0.29 0.38,0.43 0.13,0.15 0.25,0.29 0.38,0.44 0.13,0.15 0.25,0.29 0.37,0.44 0.12,0.15 0.25,0.3 0.37,0.45l0 0c0.12,0.15 0.24,0.3 0.36,0.45l0 0c0.12,0.15 0.24,0.3 0.36,0.45 0.12,0.15 0.24,0.31 0.35,0.46l0 0c0.12,0.15 0.23,0.31 0.35,0.46l0 0c0.35,0.46 0.68,0.93 1.01,1.41l0 0c0.44,0.63 0.86,1.28 1.28,1.93l0 0c0.51,0.82 1,1.65 1.47,2.49l0 0c0.09,0.17 0.18,0.34 0.28,0.51l0 0c0.27,0.51 0.54,1.02 0.79,1.54l0 0c0.09,0.17 0.17,0.35 0.25,0.52l0 0c0.08,0.17 0.16,0.35 0.25,0.52l0 0c0.08,0.17 0.16,0.35 0.24,0.53l0 0c0.08,0.18 0.16,0.35 0.23,0.53l0 0c0.08,0.18 0.15,0.35 0.23,0.53l0 0c0.07,0.18 0.15,0.36 0.22,0.53 0.07,0.18 0.14,0.36 0.21,0.54 0.07,0.18 0.14,0.36 0.21,0.54 0.07,0.18 0.13,0.36 0.2,0.54l0 0c0.07,0.18 0.13,0.36 0.19,0.54l0 0c0.06,0.18 0.13,0.36 0.19,0.55 0.06,0.18 0.12,0.37 0.18,0.55l0 0c0.06,0.18 0.12,0.37 0.17,0.55l0 0c0.06,0.18 0.11,0.37 0.17,0.55l0 0c0.06,0.18 0.11,0.37 0.16,0.55l0 0c0.52,1.85 0.93,3.74 1.21,5.64 0.37,2.49 0.54,4.98 0.53,7.47l0 0c0,0.21 -0,0.42 -0,0.62l0 0c-0,0.21 -0.01,0.42 -0.01,0.62l0 0c-0.01,0.21 -0.01,0.42 -0.02,0.62l0 0c-0.01,0.21 -0.01,0.41 -0.02,0.62l0 0c-0.01,0.21 -0.02,0.42 -0.03,0.62l0 0c-0.01,0.21 -0.02,0.42 -0.04,0.62l0 0c-0.01,0.21 -0.03,0.42 -0.04,0.62l0 0c-0.02,0.21 -0.03,0.41 -0.05,0.62l0 0c-0.02,0.21 -0.04,0.41 -0.06,0.62 -0.02,0.21 -0.04,0.42 -0.06,0.62 -0.04,0.41 -0.09,0.83 -0.14,1.24l0 0c-0.02,0.21 -0.05,0.42 -0.08,0.62l0 0c-0.03,0.21 -0.05,0.41 -0.08,0.62 -0.03,0.21 -0.06,0.41 -0.09,0.62l0 0c-0.03,0.21 -0.06,0.41 -0.09,0.62l-0 0c-0.03,0.21 -0.06,0.41 -0.1,0.62l-0 0c-0.03,0.21 -0.07,0.41 -0.1,0.62 -0.03,0.21 -0.07,0.41 -0.11,0.62 -0.04,0.21 -0.07,0.41 -0.11,0.62l-0 0c-0.04,0.21 -0.07,0.41 -0.11,0.62l0 0 -0.12 0.62 0 0c-0.04,0.21 -0.08,0.41 -0.12,0.62l-0.13 0.62 0 0 -0.13 0.62 0 0 -0.13 0.62 0 0 -0.14 0.62 0 0 -0.14 0.62 -0 0 -0.14 0.62 0 0 -0.15 0.62 -0 0 -0.15 0.62 0 0 -0.15 0.61 -0 0 -0.15 0.61 0 0 -0.16 0.61 -0 0 -0.16 0.61 0 0 -0.16 0.61 0 0 -0.16 0.61 0 0 -0.17 0.61 -0 0 -0.17 0.61 0 0 -0.17 0.61 0 0 -0.17 0.61 -0 0 -0.17 0.61 0 0 -0.17 0.61 0 0 -0.18 0.61 0 0 -0.18 0.61 0 0 -0.18 0.61 0 0 -0.18 0.61 0 0 -0.18 0.61 0 0 -0.18 0.61 0 0 -0.18 0.6 0 0 -0.18 0.6 0 0 -0.18 0.6 0 0 -0.06 0.2 0 0 -0.06 0.2 0 0 -0.06 0.2 0 0 -0.06 0.21 0 0 -0.07 0.21 0 0 -0.07 0.21 0 0 -0.07 0.21 0 0 -0.07 0.21 0 0 -0.07 0.21 0 0 -0.07 0.21 0 0 -0.07 0.21 0 0 -0.07 0.21 0 0 -0.08 0.21 -0 0 -0.08 0.21 0 0 -0.08 0.21 0 0 -0.08 0.21 0 0 -0.08 0.21 0 0 -0.09 0.2 0 0 -0.09 0.2 0 0 -0.09 0.2 0 0 -0.09 0.2 0 0 -0.09 0.2 0 0 -0.09 0.2 0 0 -0.09 0.2 -0 0 -0.1 0.2 0 0 -0.1 0.19 0 0 -0.1 0.19 0 0 -0.1 0.19 -0 0 -0.1 0.19 0 0 -0.11 0.19 0 0 -0.11 0.18 0 0 -0.11 0.18 0 0 -0.11 0.18 0 0 -0.12 0.18 0 0c-0.12,0.18 -0.24,0.35 -0.37,0.51l0 0c-0.08,0.11 -0.17,0.22 -0.26,0.33l-0 0c-1.09,1.34 -2.44,2.35 -4.17,2.74l0 0c-0.45,0.1 -0.9,0.16 -1.35,0.17l0 0 -0.1 0 0 0 -0.1 0c-0.1,0 -0.21,-0 -0.31,-0l-0 0 -0.1 -0 0 0c-0.14,-0.01 -0.28,-0.01 -0.42,-0.03l0 0 -0.1 -0.01 -0 0 -0.1 -0.01 -0 0 -0.1 -0.01 0 0 -0.1 -0.01 0 0 -0.1 -0.01 0 0 -0.1 -0.01 0 0 -0.1 -0.02 0 0 -0.1 -0.02 0 0 -0.1 -0.02 0 0 -0.1 -0.02 -0 0 -0.1 -0.02 0 0 -0.21 -0.04 -0 0 -0.21 -0.04 0 0 -0.1 -0.02 -0 0 -0.1 -0.02 0 0 -0.1 -0.02 -0 0c-0.1,-0.02 -0.21,-0.05 -0.31,-0.08l-0 0c-0.1,-0.03 -0.21,-0.05 -0.31,-0.08l0 0 -0.21 -0.06 0 -0 -0.1 -0.03 0 0c-0.14,-0.04 -0.28,-0.08 -0.41,-0.12l-0 -0 -0.1 -0.03 -0 0 -0.1 -0.03 0 0 -0.1 -0.03 0 -0 -0.1 -0.03 0 0 -0.1 -0.03 0 0 -0.1 -0.03 0 -0 -0.1 -0.03 -0 -0 -0.1 -0.03 0 0 -0.1 -0.03 -0 0 -0.1 -0.03 -0 0 -0.17 -0.05 0 0 -0.17 -0.05 0 0 -0.17 -0.05 -0 0 -0.17 -0.05 -0 0 -0.17 -0.05 0 0 -0.17 -0.05 0 0 -0.17 -0.05 -0 -0 -0.17 -0.05 0 0 -0.17 -0.05 -0 0 -0.17 -0.05 0 0 -0.17 -0.05 -0 0 -0.17 -0.05 0 0 -0.17 -0.05 -0 0 -0.17 -0.05 0 0 -0.17 -0.05 -0 0 -0.17 -0.05 0 0 -0.17 -0.05 -0 -0 -0.17 -0.05 0 0 -0.17 -0.05 -0 0 -0.17 -0.05 0 0 -0.17 -0.05 -0 0 -0.17 -0.05 0 0 -0.17 -0.05 -0 0 -0.17 -0.05 0 0 -0.17 -0.05 -0 0 -0.17 -0.05 0 0 -0.17 -0.05 0 -0 -0.17 -0.05 0 0 -0.17 -0.05 -0 0 -0.17 -0.05 0 0 -0.17 -0.05 0 0 -0.17 -0.05 0 0 -0.17 -0.05 -0 0 -0.17 -0.05 0 0 -0.17 -0.05 0 0 -0.17 -0.05 0 -0 -0.17 -0.05 0 0 -0.17 -0.05 0 0 -0.17 -0.05 0 0 -0.17 -0.05 0 0 -0.17 -0.05 0 0 -0.17 -0.05 -0.34 -0.1 0 0 -0.17 -0.05 0 0 -0.34 -0.1 -0 0 -0.17 -0.05 0 0 -0.17 -0.05 0 0 -0.17 -0.05 0 0 -0.17 -0.05 -0 0 -0.17 -0.05 0 0 -0.17 -0.05 0 0 -0.17 -0.05 0 0 -0.17 -0.05 -0 0 -0.17 -0.05 0 0 -0.03 -0.01 -1.32 -0.41 0 0c-0.91,-0.28 -1.83,-0.57 -2.74,-0.86l-0 0 -0.27 -0.09 0 -0 -0.27 -0.09 0 0 -0.27 -0.09 -0 0 -0.27 -0.09 -0 0 -0.27 -0.09 0 0 -0.27 -0.09 0 0 -0.27 -0.09 0 -0 -0.27 -0.09 0 0 -0.27 -0.09 -0 0 -0.27 -0.09 -0 0 -0.27 -0.09 0 0 -0.27 -0.09 -0 0 -0.54 -0.19 -0 0c-0.27,-0.1 -0.54,-0.19 -0.81,-0.29l-0 0c-3.33,-1.22 -6.55,-2.67 -9.49,-4.63 -2.85,-1.9 -5.33,-4.21 -7.5,-6.8l-0 0c-0.12,-0.14 -0.24,-0.29 -0.36,-0.43l0 0c-0.24,-0.29 -0.47,-0.59 -0.7,-0.89l-0 0c-0.11,-0.15 -0.23,-0.3 -0.34,-0.45l0 0c-0.23,-0.3 -0.45,-0.61 -0.67,-0.91l0 0c-0.11,-0.15 -0.22,-0.31 -0.33,-0.46l0 0c-0.11,-0.15 -0.21,-0.31 -0.32,-0.47l0 0c-0.11,-0.16 -0.21,-0.31 -0.31,-0.47l-0 0c-0.31,-0.47 -0.62,-0.96 -0.91,-1.44l0 0c-0.3,-0.49 -0.59,-0.98 -0.87,-1.48l0 0c-0.09,-0.17 -0.19,-0.33 -0.28,-0.5l0 0c-0.18,-0.33 -0.37,-0.67 -0.55,-1.01l0 0c-0.18,-0.34 -0.36,-0.68 -0.53,-1.02l0 0c-0.09,-0.17 -0.17,-0.34 -0.26,-0.52l0 0c-0.09,-0.17 -0.17,-0.34 -0.25,-0.52l0 0c-0.17,-0.35 -0.33,-0.69 -0.49,-1.04l0 0c-0.08,-0.18 -0.16,-0.35 -0.24,-0.53l0 0c-0.08,-0.18 -0.16,-0.35 -0.24,-0.53l0 0c-0.16,-0.35 -0.31,-0.71 -0.46,-1.06l0 0c-0.15,-0.36 -0.3,-0.71 -0.44,-1.07l0 0c-0.36,-0.89 -0.71,-1.79 -1.05,-2.7l0 0c-0.07,-0.18 -0.13,-0.36 -0.2,-0.54l-0 0c-0.2,-0.54 -0.39,-1.09 -0.57,-1.64l-0 0 -0.18 -0.55 0 0 -0.18 -0.55 0 0c-0.06,-0.18 -0.12,-0.36 -0.18,-0.55l0 0c-0.12,-0.36 -0.23,-0.73 -0.35,-1.09l-0 0 -0.17 -0.55 0 0 -0.17 -0.55 0 0 -0.12 -0.4 0 0 -0.12 -0.4 0 0 -0.12 -0.4 0 0 -0.12 -0.4 0 0 -0.12 -0.4 0 0 -0.11 -0.4 -0 0 -0.11 -0.4 0 0 -0.11 -0.4 0 0c-0.07,-0.27 -0.15,-0.54 -0.22,-0.81l0 0 -0.11 -0.4 -0 0 -0.11 -0.41 0 0 -0.1 -0.41 0 0 -0.1 -0.41 -0.1 -0.41 -0.1 -0.41 -0 0 -0.1 -0.41 0 0 -0.1 -0.41 -0.09 -0.41 -0.09 -0.41 0 0 -0.09 -0.41 -0.09 -0.41 0 0 -0.09 -0.41 0 0 -0.08 -0.41 -0.08 -0.41 -0.08 -0.41 0 0 -0.08 -0.41 -0.08 -0.41 0 0 -0.07 -0.41 0 0 -0.07 -0.41 0 0 -0.07 -0.41 0 0 -0.07 -0.41 0 0 -0.06 -0.41 0 0 -0.06 -0.41 0 -0 -0.06 -0.41 0 -0 -0.06 -0.41 0 0 -0.05 -0.41 0 0 -0.05 -0.41 0 0 -0.05 -0.42 0 0 -0.05 -0.41 0 -0 -0.04 -0.41 0 -0 -0.04 -0.41 0 -0 -0.04 -0.42 0 0 -0.04 -0.42 0 0 -0.03 -0.42 0 0 -0.03 -0.42 0 0 -0.02 -0.42 0 -0 -0.02 -0.42 -0 0 -0.02 -0.42 0 0 -0.02 -0.42 0 -0 -0.01 -0.42 0 -0 -0.01 -0.42 0 -0c-0,-0.14 -0.01,-0.28 -0.01,-0.42l0 -0c-0,-0.14 -0,-0.28 -0,-0.42l0 -0.42 0 -0c0,-0.14 0,-0.28 0,-0.42l0 0 0.01 -0.42 0 0 0.01 -0.42 0 -0 0.01 -0.42 0 -0 0.02 -0.42 0 0 0.02 -0.42 0 0 0.02 -0.42 0 -0c0.01,-0.14 0.02,-0.28 0.03,-0.42l0 -0 0.03 -0.42 0 -0c0.01,-0.14 0.02,-0.28 0.04,-0.42l0 0c0.01,-0.14 0.03,-0.28 0.04,-0.42l0 -0 0.04 -0.42 0 -0c0.02,-0.14 0.03,-0.28 0.05,-0.42l0 -0c0.02,-0.14 0.04,-0.28 0.05,-0.42l0 -0c0.02,-0.14 0.04,-0.28 0.06,-0.42l0 0c0.02,-0.14 0.04,-0.28 0.06,-0.42l0 0c0.02,-0.14 0.04,-0.28 0.07,-0.42l0 0c0.02,-0.14 0.05,-0.28 0.07,-0.42l0 0 0.08 -0.41 0 0c0.02,-0.14 0.05,-0.28 0.08,-0.41l0 0c0.13,-0.69 0.29,-1.37 0.46,-2.05l0 0c0.04,-0.14 0.07,-0.27 0.11,-0.41 0.04,-0.14 0.07,-0.27 0.11,-0.41 0.04,-0.13 0.07,-0.27 0.11,-0.4l0 0c0.04,-0.13 0.08,-0.27 0.12,-0.4l0 0c0.04,-0.13 0.08,-0.27 0.12,-0.4l0 0c0.04,-0.13 0.08,-0.27 0.13,-0.4l0 -0c0.04,-0.13 0.09,-0.27 0.13,-0.4 0.04,-0.13 0.09,-0.27 0.13,-0.4 0.05,-0.13 0.09,-0.26 0.14,-0.4l0 0c0.05,-0.13 0.1,-0.26 0.14,-0.39 0.05,-0.13 0.1,-0.26 0.15,-0.39 0.05,-0.13 0.1,-0.26 0.15,-0.39l0 0c0.05,-0.13 0.1,-0.26 0.16,-0.39l0 0c0.05,-0.13 0.11,-0.26 0.16,-0.39 0.06,-0.13 0.11,-0.26 0.17,-0.38l0 0c0.06,-0.13 0.11,-0.26 0.17,-0.38l0 0c0.06,-0.13 0.12,-0.25 0.18,-0.38 0.06,-0.13 0.12,-0.25 0.18,-0.38l0 -0c0.06,-0.12 0.12,-0.25 0.18,-0.37 0.06,-0.12 0.12,-0.25 0.19,-0.37 0.06,-0.12 0.13,-0.25 0.19,-0.37 0.06,-0.12 0.13,-0.25 0.2,-0.37l0 0c0.07,-0.12 0.13,-0.24 0.2,-0.36l0 0c0.07,-0.12 0.14,-0.24 0.21,-0.36l0 0c0.07,-0.12 0.14,-0.24 0.21,-0.36 0.07,-0.12 0.14,-0.24 0.22,-0.36l0 0c0.07,-0.12 0.15,-0.23 0.22,-0.35 0.07,-0.12 0.15,-0.23 0.23,-0.35 0.08,-0.12 0.15,-0.23 0.23,-0.35l0 -0c0.08,-0.11 0.16,-0.23 0.23,-0.34l0 0c0.08,-0.11 0.16,-0.23 0.24,-0.34l0 0c0.08,-0.11 0.16,-0.23 0.24,-0.34l0 0c0.17,-0.22 0.33,-0.44 0.5,-0.66l0 0c0.08,-0.11 0.17,-0.22 0.26,-0.33l0 0c0.17,-0.22 0.35,-0.43 0.53,-0.64l0 0c0.09,-0.11 0.18,-0.21 0.27,-0.31l0 0c0.09,-0.1 0.18,-0.21 0.28,-0.31l0 0c0.37,-0.41 0.75,-0.81 1.15,-1.2l0 0c0.1,-0.1 0.2,-0.19 0.3,-0.29l0 0c0.4,-0.38 0.82,-0.75 1.25,-1.11l0.51 -0.24 0 0zm21.98 85.59c-0.18,-0.06 -0.36,-0.13 -0.54,-0.19z"/>
  <path class="fil1" d="M301.74 86.1c4.58,1.24 9.1,2.72 13.52,4.45 1.28,0.5 2.55,1.03 3.81,1.57 0.78,0.34 1.24,0.53 2.01,0.06 1.33,-0.81 1.79,-2.4 2.2,-3.8 1.11,-3.83 3.6,-6.86 5.68,-10.19 0.99,-1.59 1.86,-3.25 2.45,-5.04 0.19,-0.58 0.36,-1.17 0.53,-1.75 -0.71,-0.21 -1.43,-0.4 -2.15,-0.58 -0.17,0.58 -0.34,1.16 -0.53,1.74 -0.74,2.22 -2,4.2 -3.29,6.13 -1.25,1.88 -2.58,3.72 -3.57,5.75 -0.46,0.95 -0.86,1.93 -1.16,2.94 -0.34,1.12 -0.5,2.47 -1.64,3.05l1.12 0c-5.92,-2.58 -12,-4.74 -18.23,-6.43 -0.28,0.69 -0.53,1.39 -0.76,2.1z"/>
  <path class="fil1" d="M299.74 100.93l17.08 5c3.16,0.93 6.31,1.85 9.46,2.77 2.11,0.62 5.05,2.12 6.95,0.3 0.88,-0.85 1.34,-2.14 1.88,-3.21 0.74,-1.48 1.48,-2.95 2.21,-4.43 1.43,-2.86 2.86,-5.72 4.29,-8.58l6.66 -13.32c-0.61,-0.42 -1.23,-0.83 -1.86,-1.24 -4.63,9.28 -9.23,18.57 -13.91,27.83 -0.33,0.66 -0.61,1.53 -1.52,1.62 -0.7,0.07 -1.67,-0.4 -2.33,-0.59 -1.38,-0.4 -2.76,-0.81 -4.14,-1.21 -2.76,-0.81 -5.52,-1.62 -8.28,-2.43l-16.51 -4.84c-0.01,0.78 -0.01,1.55 0.02,2.33z"/>
  <path class="fil1" d="M303.56 121.61c8.96,3.24 18.43,4.97 27.98,5 2.37,0.01 4.98,0.16 6.87,-1.51 2.01,-1.77 3.46,-4.47 5,-6.65 3.49,-4.96 6.88,-9.98 10.17,-15.06 2.55,-3.94 5.04,-7.91 7.47,-11.92 -0.48,-0.63 -0.97,-1.25 -1.48,-1.86 -4.83,8 -9.9,15.86 -15.2,23.56 -1.58,2.29 -3.17,4.57 -4.79,6.83 -0.75,1.05 -1.47,2.3 -2.41,3.2 -1.03,0.99 -2.26,1.13 -3.63,1.16 -5.54,0.15 -11.12,-0.33 -16.57,-1.36 -4.84,-0.91 -9.6,-2.26 -14.19,-4.03 0.25,0.88 0.5,1.76 0.77,2.64z"/>
  <path class="fil1" d="M310.24 137.96c3.83,1.23 7.73,2.25 11.69,3.02 5.52,1.08 11.34,2.03 16.97,1.47 5.31,-0.53 9.96,-2.64 13.35,-6.85 4.02,-5 7.32,-10.7 10.87,-16.03l6.6 -9.91c-0.23,-0.96 -0.48,-1.9 -0.77,-2.84 -5.36,8.07 -10.72,16.15 -16.12,24.2 -1.59,2.37 -3.29,4.77 -5.67,6.41 -2.11,1.45 -4.58,2.26 -7.09,2.65 -5.4,0.84 -11.07,-0.04 -16.39,-1.02 -5.07,-0.93 -10.06,-2.26 -14.92,-3.94 0.47,0.96 0.97,1.91 1.49,2.84z"/>
  <path class="fil1" d="M370.23 130.09c-3.13,3.94 -6.35,7.82 -9.66,11.61 -1.59,1.82 -3.2,3.62 -4.83,5.41 -1.47,1.6 -2.96,3.45 -4.99,4.37 -2.26,1.02 -5.2,0.64 -7.63,0.69 -2.49,0.04 -4.98,0.09 -7.47,0.13l-12.25 0.21c1.27,0.8 2.59,1.51 3.95,2.16l8.93 -0.15c2.7,-0.05 5.39,-0.09 8.09,-0.14 2.41,-0.04 4.99,0.16 7.25,-0.84 1.87,-0.83 3.34,-2.3 4.71,-3.77 1.77,-1.9 3.5,-3.84 5.22,-5.79 2.72,-3.09 5.37,-6.24 7.96,-9.43 0.29,-1.49 0.55,-2.98 0.76,-4.48l-0.04 0.05z"/>
  <path class="fil1" d="M311.38 71.66c2.46,13.79 12.38,24.56 18.06,37.03 3.2,7.04 5.67,14.33 9.54,21.06 3.45,5.99 7.45,11.64 11.11,17.5 3.12,5 5.96,10.19 7.86,15.75 0.72,-0.28 1.37,-0.68 1.96,-1.17 -3.84,-10.93 -11.17,-20.34 -17.2,-30.18 -4.02,-6.56 -6.86,-13.49 -9.82,-20.58 -2.8,-6.7 -6.48,-12.82 -10.22,-19.02 -4,-6.62 -7.81,-13.46 -9.16,-21.15 -0.64,0.19 -1.29,0.41 -1.93,0.65l0 0 -0.19 0.09z"/>
  <path class="fil2" d="M493.46 2.81c19.09,15.18 20.38,43.53 17.86,62.54 -2.51,19.04 -12.09,37.23 -26.96,49.39 -16.17,13.23 -37.14,18.7 -57.4,23.82 -6.17,1.56 -13.55,2.81 -18.51,-0.72 -0.45,-0.34 -0.87,-0.71 -1.28,-1.13l0 0c-2.43,-2.54 -3.35,-6.13 -4.17,-9.55l0 0c-1.37,-5.69 -2.74,-11.38 -4.12,-17.07l0 0c-2.23,-9.26 -4.48,-18.67 -4,-28.18l0 0c0.95,-18.94 12.52,-35.66 25.28,-49.69l0 0c9.35,-10.27 19.79,-19.88 32.27,-25.98l0 0c7.97,-3.89 16.88,-6.24 25.7,-6.24l0 0c5,0 9.97,0.75 14.71,2.41l0.6 0.4z"/>
  <path class="fil1" d="M466.17 1.38c1.4,4.99 2.61,10.03 3.62,15.12 0.51,2.56 0.97,5.14 1.37,7.72 0.2,1.29 0.4,2.59 0.57,3.88 0.17,1.22 0.04,2.63 1.11,3.43 1.63,1.22 3.82,1.08 5.7,0.69 2.41,-0.5 4.66,-1.18 7.15,-1.32 5.04,-0.28 10.06,0.49 15.09,0.36 2.71,-0.07 5.36,-0.47 7.98,-1.16 0.42,-0.11 0.83,-0.22 1.25,-0.33 -0.29,-1.12 -0.6,-2.23 -0.95,-3.32 -0.86,0.23 -1.72,0.46 -2.58,0.66 -3.65,0.85 -7.39,0.76 -11.11,0.57 -3.69,-0.19 -7.39,-0.5 -11.08,-0.13 -1.79,0.18 -3.52,0.53 -5.26,0.99 -1.47,0.39 -3.07,0.92 -4.43,0.01 0.29,0.5 0.57,1 0.86,1.5 -1.25,-9.91 -3.19,-19.7 -5.87,-29.32 -1.14,0.19 -2.28,0.41 -3.41,0.66z"/>
  <path class="fil1" d="M444.75 10.58l11.03 42.74c0.69,2.7 1.05,6.43 3.83,7.86 1.38,0.71 2.99,0.57 4.48,0.46 2.06,-0.15 4.13,-0.31 6.19,-0.46 7.63,-0.57 15.27,-1.13 22.9,-1.7l19.1 -1.42c0.07,-1.14 0.13,-2.3 0.17,-3.48l-36.91 2.74c-3.61,0.27 -7.22,0.54 -10.83,0.8 -1.36,0.1 -3.43,0.65 -4.22,-0.81 -0.72,-1.35 -0.92,-3.14 -1.29,-4.61 -1.82,-7.04 -3.64,-14.09 -5.45,-21.13l-5.9 -22.88c-1.05,0.61 -2.08,1.23 -3.09,1.89z"/>
  <path class="fil1" d="M420.15 32.25c2.67,13.65 7.48,26.83 14.35,38.96 1.85,3.27 3.85,7.75 7.37,9.53 1.68,0.85 3.56,1.03 5.4,1.2 2.47,0.23 4.95,0.42 7.43,0.61 9.7,0.75 19.41,1.31 29.14,1.68 7.55,0.28 15.1,0.45 22.65,0.51 0.46,-1.14 0.9,-2.3 1.3,-3.46 -15.54,-0.09 -31.08,-0.65 -46.58,-1.72 -4.64,-0.32 -9.29,-0.66 -13.93,-1.09 -1.83,-0.17 -3.68,-0.38 -5.06,-1.73 -1.39,-1.37 -2.34,-3.23 -3.33,-4.9 -4.26,-7.15 -7.8,-14.71 -10.56,-22.57 -2.3,-6.56 -4.07,-13.31 -5.26,-20.16 -0.97,1.03 -1.93,2.06 -2.88,3.1l0 0 -0.02 0.03z"/>
  <path class="fil1" d="M403.65 54.26c1.34,5.75 2.99,11.43 4.96,17 2.91,8.23 6.24,16.73 11.35,23.88 4.87,6.81 11.37,11.64 19.77,12.92 4.9,0.74 9.9,0.8 14.85,1.04 5.2,0.26 10.4,0.52 15.6,0.78l18.98 0.95c1.09,-1.06 2.14,-2.15 3.15,-3.28 -15.7,-0.72 -31.41,-1.39 -47.09,-2.39 -4.34,-0.28 -8.73,-0.86 -12.62,-2.93 -3.28,-1.74 -6.02,-4.27 -8.35,-7.14 -5.24,-6.46 -8.52,-14.56 -11.4,-22.29 -2.77,-7.43 -4.96,-15.06 -6.6,-22.82 -0.91,1.4 -1.78,2.83 -2.6,4.27z"/>
  <path class="fil1" d="M461.47 127.73c-12.2,-1.63 -24.36,-3.68 -36.39,-6.29 -2.38,-0.52 -4.81,-1.1 -6.91,-2.39 -2.37,-1.47 -3.7,-3.97 -5.13,-6.28 -3.33,-5.37 -6.66,-10.75 -9.99,-16.12l-8.21 -13.25c-0.05,2.35 0.06,4.7 0.28,7.04l14.6 23.55c1.51,2.43 2.93,5.11 5.18,6.95 1.93,1.58 4.24,2.55 6.63,3.21 5.98,1.66 12.24,2.61 18.34,3.69 5.32,0.95 10.66,1.8 16.01,2.57 2.12,-0.77 4.22,-1.58 6.29,-2.45 -0.2,-0.12 -0.44,-0.21 -0.71,-0.24z"/>
  <path class="fil1" d="M493.08 2.55c-16.24,14.03 -22.72,35.53 -34.56,52.85 -6.92,10.13 -14.93,19.37 -20.97,30.1 -5.33,9.47 -9.72,19.42 -14.7,29.07 -4.19,8.12 -8.85,16.06 -14.75,23 0.93,0.76 1.96,1.34 3.07,1.76 11.69,-13.97 18.44,-31.51 26.9,-47.54 2.61,-4.94 5.4,-9.78 8.56,-14.39 3.6,-5.24 7.57,-10.21 11.35,-15.32 6.73,-9.11 11.89,-19.01 17.22,-28.97 5.54,-10.35 11.57,-20.64 20.58,-28.35 -0.71,-0.64 -1.44,-1.27 -2.21,-1.88l0 0 -0.51 -0.35z"/>
  <path class="fil3" d="M27.32 242.75c3.96,0 7.19,-1.02 9.7,-3.06 2.51,-2.04 4.35,-4.74 5.51,-8.1 1.16,-3.36 1.74,-7.02 1.74,-10.97 0,-2.95 -0.33,-5.76 -0.99,-8.43 -0.66,-2.67 -1.68,-5.02 -3.06,-7.07 -1.38,-2.04 -3.14,-3.66 -5.28,-4.85 -2.14,-1.19 -4.68,-1.79 -7.63,-1.79l-16.49 0 0.94 -0.85 0 46.16 -0.56 -1.04 16.11 0zm0.94 -55.11c4.52,0 8.54,0.85 12.06,2.54 3.52,1.7 6.48,4.07 8.9,7.11 2.42,3.05 4.24,6.56 5.46,10.55 1.22,3.99 1.84,8.24 1.84,12.76 0,6.09 -1.1,11.64 -3.3,16.63 -2.2,4.99 -5.39,8.97 -9.56,11.92 -4.18,2.95 -9.31,4.43 -15.4,4.43l-22.52 0c-1.63,0 -3,-0.55 -4.1,-1.65 -1.1,-1.1 -1.65,-2.47 -1.65,-4.1l0 -54.45c0,-1.63 0.55,-3 1.65,-4.1 1.1,-1.1 2.46,-1.65 4.1,-1.65l22.52 0z"/>
  <path class="fil3" d="M77.06 247.84c0,1.63 -0.53,3 -1.6,4.1 -1.07,1.1 -2.42,1.65 -4.05,1.65 -1.63,0 -2.98,-0.55 -4.05,-1.65 -1.07,-1.1 -1.6,-2.46 -1.6,-4.1l0 -38.91c0,-1.63 0.53,-3 1.6,-4.1 1.07,-1.1 2.42,-1.65 4.05,-1.65 1.63,0 2.98,0.55 4.05,1.65 1.07,1.1 1.6,2.47 1.6,4.1l0 38.91zm-5.75 -50.78c-2.14,0 -3.64,-0.34 -4.52,-1.04 -0.88,-0.69 -1.32,-1.91 -1.32,-3.67l0 -1.79c0,-1.82 0.49,-3.06 1.46,-3.72 0.97,-0.66 2.46,-0.99 4.47,-0.99 2.2,0 3.74,0.34 4.62,1.04 0.88,0.69 1.32,1.92 1.32,3.67l0 1.79c0,1.82 -0.47,3.06 -1.41,3.72 -0.94,0.66 -2.48,0.99 -4.62,0.99z"/>
  <path class="fil3" d="M111.35 212.6c-2.83,0 -5.31,0.69 -7.44,2.07 -2.14,1.38 -3.8,3.27 -4.99,5.65 -1.19,2.39 -1.79,5.09 -1.79,8.1 0,2.95 0.6,5.62 1.79,8.01 1.19,2.39 2.86,4.27 4.99,5.65 2.13,1.38 4.62,2.07 7.44,2.07 2.89,0 5.4,-0.69 7.54,-2.07 2.13,-1.38 3.8,-3.26 4.99,-5.65 1.19,-2.39 1.79,-5.05 1.79,-8.01 0,-3.01 -0.6,-5.71 -1.79,-8.1 -1.19,-2.39 -2.86,-4.27 -4.99,-5.65 -2.14,-1.38 -4.65,-2.07 -7.54,-2.07zm-1.79 -10.36c2.64,0 5.05,0.41 7.25,1.23 2.2,0.82 4.1,1.85 5.7,3.11 1.6,1.26 2.86,2.53 3.77,3.82 0.91,1.29 1.37,2.37 1.37,3.25l-2.45 1.22 0 -6.88c0,-1.63 0.53,-3 1.6,-4.1 1.07,-1.1 2.42,-1.65 4.05,-1.65 1.63,0 2.98,0.53 4.05,1.6 1.07,1.07 1.6,2.45 1.6,4.15l0 41.92c0,5.46 -1.18,9.84 -3.53,13.14 -2.36,3.3 -5.45,5.68 -9.28,7.16 -3.83,1.47 -7.95,2.21 -12.34,2.21 -1.26,0 -2.89,-0.16 -4.9,-0.47 -2.01,-0.32 -3.93,-0.69 -5.75,-1.13 -1.82,-0.44 -3.2,-0.85 -4.15,-1.23 -1.88,-0.82 -3.19,-1.84 -3.91,-3.06 -0.72,-1.23 -0.86,-2.53 -0.42,-3.91 0.56,-1.82 1.47,-3.06 2.73,-3.72 1.26,-0.66 2.58,-0.74 3.96,-0.23 0.63,0.19 1.66,0.56 3.11,1.13 1.44,0.56 3.03,1.08 4.76,1.55 1.73,0.47 3.25,0.71 4.57,0.71 4.71,0 8.2,-0.94 10.46,-2.83 2.26,-1.88 3.39,-4.49 3.39,-7.82l0 -8.2 1.13 0.85c0,0.82 -0.42,1.81 -1.27,2.97 -0.85,1.16 -2.01,2.31 -3.49,3.44 -1.48,1.13 -3.22,2.09 -5.23,2.87 -2.01,0.79 -4.15,1.18 -6.41,1.18 -4.46,0 -8.48,-1.11 -12.06,-3.34 -3.58,-2.23 -6.4,-5.31 -8.48,-9.23 -2.07,-3.92 -3.11,-8.43 -3.11,-13.52 0,-5.15 1.04,-9.69 3.11,-13.61 2.07,-3.92 4.87,-7 8.38,-9.23 3.52,-2.23 7.44,-3.34 11.78,-3.34z"/>
  <path class="fil3" d="M159.4 247.84c0,1.63 -0.53,3 -1.6,4.1 -1.07,1.1 -2.42,1.65 -4.05,1.65 -1.63,0 -2.98,-0.55 -4.05,-1.65 -1.07,-1.1 -1.6,-2.46 -1.6,-4.1l0 -38.91c0,-1.63 0.53,-3 1.6,-4.1 1.07,-1.1 2.42,-1.65 4.05,-1.65 1.63,0 2.98,0.55 4.05,1.65 1.07,1.1 1.6,2.47 1.6,4.1l0 38.91zm-5.75 -50.78c-2.14,0 -3.64,-0.34 -4.52,-1.04 -0.88,-0.69 -1.32,-1.91 -1.32,-3.67l0 -1.79c0,-1.82 0.49,-3.06 1.46,-3.72 0.97,-0.66 2.46,-0.99 4.47,-0.99 2.2,0 3.74,0.34 4.62,1.04 0.88,0.69 1.32,1.92 1.32,3.67l0 1.79c0,1.82 -0.47,3.06 -1.41,3.72 -0.94,0.66 -2.48,0.99 -4.62,0.99z"/>
  <path class="fil3" d="M181.63 192.35c1.63,0 2.97,0.55 4,1.65 1.04,1.1 1.55,2.47 1.55,4.1l0 41.92c0,0.88 0.17,1.6 0.52,2.17 0.34,0.57 0.82,0.98 1.41,1.23 0.6,0.25 1.24,0.38 1.93,0.38 0.75,0 1.45,-0.14 2.07,-0.42 0.63,-0.28 1.35,-0.42 2.17,-0.42 0.88,0 1.68,0.41 2.4,1.22 0.72,0.82 1.08,1.95 1.08,3.39 0,1.76 -0.96,3.2 -2.87,4.33 -1.92,1.13 -3.97,1.7 -6.17,1.7 -1.32,0 -2.78,-0.11 -4.38,-0.33 -1.6,-0.22 -3.11,-0.75 -4.52,-1.6 -1.41,-0.85 -2.59,-2.15 -3.53,-3.91 -0.94,-1.76 -1.41,-4.18 -1.41,-7.25l0 -42.39c0,-1.63 0.55,-3 1.65,-4.1 1.1,-1.1 2.46,-1.65 4.1,-1.65zm-10.08 11.78l22.33 0c1.51,0 2.76,0.5 3.77,1.51 1,1.01 1.51,2.26 1.51,3.77 0,1.45 -0.5,2.65 -1.51,3.63 -1.01,0.97 -2.26,1.46 -3.77,1.46l-22.33 0c-1.51,0 -2.76,-0.5 -3.77,-1.51 -1.01,-1.01 -1.51,-2.26 -1.51,-3.77 0,-1.44 0.5,-2.65 1.51,-3.63 1,-0.97 2.26,-1.46 3.77,-1.46z"/>
  <path class="fil3" d="M231.75 244.16c2.76,0 5.18,-0.69 7.25,-2.07 2.07,-1.38 3.69,-3.26 4.85,-5.65 1.16,-2.39 1.74,-5.05 1.74,-8.01 0,-3.02 -0.58,-5.71 -1.74,-8.1 -1.16,-2.39 -2.78,-4.27 -4.85,-5.65 -2.07,-1.38 -4.49,-2.07 -7.25,-2.07 -2.7,0 -5.09,0.69 -7.16,2.07 -2.07,1.38 -3.69,3.27 -4.85,5.65 -1.16,2.39 -1.74,5.09 -1.74,8.1 0,2.95 0.58,5.62 1.74,8.01 1.16,2.39 2.78,4.27 4.85,5.65 2.07,1.38 4.46,2.07 7.16,2.07zm19.03 -41.92c1.63,0 2.98,0.53 4.05,1.6 1.07,1.07 1.6,2.45 1.6,4.15l0 39.85c0,1.63 -0.53,3 -1.6,4.1 -1.07,1.1 -2.42,1.65 -4.05,1.65 -1.63,0 -2.98,-0.55 -4.05,-1.65 -1.07,-1.1 -1.6,-2.47 -1.6,-4.1l0 -4.62 2.07 0.85c0,0.82 -0.44,1.81 -1.32,2.97 -0.88,1.16 -2.07,2.31 -3.58,3.44 -1.51,1.13 -3.28,2.09 -5.32,2.87 -2.04,0.79 -4.26,1.18 -6.64,1.18 -4.33,0 -8.26,-1.12 -11.78,-3.34 -3.52,-2.23 -6.3,-5.31 -8.34,-9.23 -2.04,-3.92 -3.06,-8.43 -3.06,-13.52 0,-5.15 1.02,-9.69 3.06,-13.61 2.04,-3.92 4.79,-7 8.24,-9.23 3.45,-2.23 7.29,-3.34 11.49,-3.34 2.7,0 5.18,0.41 7.44,1.22 2.26,0.82 4.22,1.85 5.89,3.11 1.66,1.26 2.95,2.53 3.86,3.82 0.91,1.29 1.37,2.37 1.37,3.25l-3.39 1.22 0 -6.88c0,-1.63 0.53,-3 1.6,-4.1 1.07,-1.1 2.42,-1.65 4.05,-1.65z"/>
  <path class="fil3" d="M280.92 247.84c0,1.63 -0.55,3 -1.65,4.1 -1.1,1.1 -2.47,1.65 -4.1,1.65 -1.57,0 -2.89,-0.55 -3.96,-1.65 -1.07,-1.1 -1.6,-2.46 -1.6,-4.1l0 -58.22c0,-1.63 0.55,-3 1.65,-4.1 1.1,-1.1 2.46,-1.65 4.1,-1.65 1.63,0 2.97,0.55 4,1.65 1.04,1.1 1.55,2.47 1.55,4.1l0 58.22z"/>
  <path class="fil0" d="M328.21 238.79l5.18 -10.83 25.44 0 1.79 10.83 -32.41 0zm17.43 -36.36l-20.35 47.86c-0.44,1.19 -1.12,2.12 -2.02,2.78 -0.91,0.66 -1.9,0.99 -2.97,0.99 -1.7,0 -2.95,-0.47 -3.77,-1.41 -0.82,-0.94 -1.23,-2.1 -1.23,-3.48 0,-0.56 0.09,-1.16 0.28,-1.79l23.46 -56.34c0.5,-1.26 1.27,-2.23 2.31,-2.92 1.04,-0.69 2.15,-0.97 3.34,-0.85 1.13,0 2.18,0.33 3.16,0.99 0.97,0.66 1.68,1.59 2.12,2.78l23.17 55.2c0.31,0.82 0.47,1.57 0.47,2.26 0,1.7 -0.55,3.05 -1.65,4.05 -1.1,1.01 -2.31,1.51 -3.63,1.51 -1.13,0 -2.15,-0.35 -3.06,-1.04 -0.91,-0.69 -1.62,-1.63 -2.12,-2.83l-20.26 -47.2 2.73 -0.56z"/>
  <path class="fil0" d="M403.39 212.6c-2.83,0 -5.31,0.69 -7.44,2.07 -2.14,1.38 -3.8,3.27 -4.99,5.65 -1.19,2.39 -1.79,5.09 -1.79,8.1 0,2.95 0.6,5.62 1.79,8.01 1.19,2.39 2.86,4.27 4.99,5.65 2.13,1.38 4.62,2.07 7.44,2.07 2.89,0 5.4,-0.69 7.54,-2.07 2.13,-1.38 3.8,-3.26 4.99,-5.65 1.19,-2.39 1.79,-5.05 1.79,-8.01 0,-3.01 -0.6,-5.71 -1.79,-8.1 -1.19,-2.39 -2.86,-4.27 -4.99,-5.65 -2.13,-1.38 -4.65,-2.07 -7.54,-2.07zm-1.79 -10.36c2.64,0 5.05,0.41 7.25,1.23 2.2,0.82 4.1,1.85 5.7,3.11 1.6,1.26 2.86,2.53 3.77,3.82 0.91,1.29 1.37,2.37 1.37,3.25l-2.45 1.22 0 -6.88c0,-1.63 0.53,-3 1.6,-4.1 1.07,-1.1 2.42,-1.65 4.05,-1.65 1.63,0 2.98,0.53 4.05,1.6 1.07,1.07 1.6,2.45 1.6,4.15l0 41.92c0,5.46 -1.18,9.84 -3.53,13.14 -2.36,3.3 -5.45,5.68 -9.28,7.16 -3.83,1.47 -7.95,2.21 -12.34,2.21 -1.26,0 -2.89,-0.16 -4.9,-0.47 -2.01,-0.32 -3.93,-0.69 -5.75,-1.13 -1.82,-0.44 -3.2,-0.85 -4.15,-1.23 -1.88,-0.82 -3.19,-1.84 -3.91,-3.06 -0.72,-1.23 -0.86,-2.53 -0.42,-3.91 0.57,-1.82 1.47,-3.06 2.73,-3.72 1.26,-0.66 2.58,-0.74 3.96,-0.23 0.63,0.19 1.66,0.56 3.11,1.13 1.44,0.56 3.03,1.08 4.76,1.55 1.73,0.47 3.25,0.71 4.57,0.71 4.71,0 8.2,-0.94 10.46,-2.83 2.26,-1.88 3.39,-4.49 3.39,-7.82l0 -8.2 1.13 0.85c0,0.82 -0.42,1.81 -1.27,2.97 -0.85,1.16 -2.01,2.31 -3.48,3.44 -1.48,1.13 -3.22,2.09 -5.23,2.87 -2.01,0.79 -4.15,1.18 -6.41,1.18 -4.46,0 -8.48,-1.11 -12.06,-3.34 -3.58,-2.23 -6.41,-5.31 -8.48,-9.23 -2.07,-3.92 -3.11,-8.43 -3.11,-13.52 0,-5.15 1.04,-9.69 3.11,-13.61 2.07,-3.92 4.87,-7 8.38,-9.23 3.52,-2.23 7.44,-3.34 11.78,-3.34z"/>
  <path class="fil0" d="M462.64 254.52c-5.34,0 -9.97,-1.11 -13.9,-3.34 -3.93,-2.23 -6.94,-5.26 -9.04,-9.09 -2.1,-3.83 -3.16,-8.16 -3.16,-13 0,-5.65 1.15,-10.47 3.44,-14.46 2.29,-3.99 5.29,-7.05 9,-9.19 3.7,-2.13 7.63,-3.2 11.78,-3.2 3.2,0 6.23,0.66 9.09,1.98 2.86,1.32 5.39,3.13 7.58,5.42 2.2,2.29 3.94,4.95 5.23,7.96 1.29,3.01 1.93,6.22 1.93,9.61 -0.06,1.51 -0.66,2.73 -1.79,3.67 -1.13,0.94 -2.45,1.41 -3.96,1.41l-35.99 0 -2.83 -9.42 34.57 0 -2.07 1.88 0 -2.54c-0.13,-1.82 -0.77,-3.45 -1.93,-4.9 -1.16,-1.44 -2.61,-2.59 -4.33,-3.44 -1.73,-0.85 -3.56,-1.27 -5.51,-1.27 -1.88,0 -3.64,0.25 -5.27,0.75 -1.63,0.5 -3.05,1.35 -4.24,2.54 -1.19,1.19 -2.14,2.8 -2.83,4.8 -0.69,2.01 -1.04,4.55 -1.04,7.63 0,3.39 0.71,6.26 2.12,8.62 1.41,2.36 3.23,4.15 5.46,5.37 2.23,1.23 4.6,1.84 7.11,1.84 2.32,0 4.18,-0.19 5.56,-0.56 1.38,-0.38 2.5,-0.83 3.35,-1.37 0.85,-0.53 1.61,-0.99 2.31,-1.37 1.13,-0.56 2.2,-0.85 3.2,-0.85 1.38,0 2.53,0.47 3.44,1.41 0.91,0.94 1.37,2.04 1.37,3.3 0,1.7 -0.88,3.24 -2.64,4.62 -1.63,1.38 -3.93,2.59 -6.88,3.63 -2.95,1.04 -6,1.55 -9.14,1.55z"/>
  <path class="fil0" d="M521.43 202.24c4.65,0 8.18,0.98 10.6,2.92 2.42,1.95 4.08,4.54 4.99,7.77 0.91,3.24 1.37,6.83 1.37,10.79l0 24.12c0,1.63 -0.53,3 -1.6,4.1 -1.07,1.1 -2.42,1.65 -4.05,1.65 -1.63,0 -2.98,-0.55 -4.05,-1.65 -1.07,-1.1 -1.6,-2.47 -1.6,-4.1l0 -24.12c0,-2.07 -0.27,-3.94 -0.8,-5.61 -0.53,-1.66 -1.49,-3 -2.87,-4 -1.38,-1 -3.36,-1.51 -5.94,-1.51 -2.51,0 -4.63,0.5 -6.36,1.51 -1.73,1.01 -3.05,2.34 -3.96,4 -0.91,1.66 -1.37,3.53 -1.37,5.61l0 24.12c0,1.63 -0.53,3 -1.6,4.1 -1.07,1.1 -2.42,1.65 -4.05,1.65 -1.63,0 -2.98,-0.55 -4.05,-1.65 -1.07,-1.1 -1.6,-2.47 -1.6,-4.1l0 -38.91c0,-1.63 0.53,-3 1.6,-4.1 1.07,-1.1 2.42,-1.65 4.05,-1.65 1.63,0 2.98,0.55 4.05,1.65 1.07,1.1 1.6,2.47 1.6,4.1l0 4.05 -1.41 -0.28c0.56,-1.07 1.38,-2.21 2.45,-3.44 1.07,-1.22 2.32,-2.37 3.77,-3.44 1.44,-1.07 3.08,-1.93 4.9,-2.59 1.82,-0.66 3.8,-0.99 5.94,-0.99z"/>
  <path class="fil0" d="M573.05 202.24c3.58,0 6.7,0.38 9.37,1.13 2.67,0.75 4.74,1.81 6.22,3.16 1.48,1.35 2.21,2.97 2.21,4.85 0,1.26 -0.38,2.44 -1.13,3.53 -0.75,1.1 -1.85,1.65 -3.3,1.65 -1.01,0 -1.84,-0.14 -2.5,-0.42 -0.66,-0.28 -1.24,-0.64 -1.74,-1.08 -0.5,-0.44 -1.1,-0.85 -1.79,-1.22 -0.63,-0.38 -1.59,-0.67 -2.87,-0.9 -1.29,-0.22 -2.25,-0.33 -2.87,-0.33 -3.2,0 -5.92,0.69 -8.15,2.07 -2.23,1.38 -3.94,3.25 -5.13,5.61 -1.19,2.36 -1.79,5.07 -1.79,8.15 0,3.01 0.61,5.7 1.84,8.05 1.23,2.36 2.92,4.23 5.09,5.61 2.17,1.38 4.66,2.07 7.49,2.07 1.57,0 2.92,-0.09 4.05,-0.28 1.13,-0.19 2.07,-0.47 2.83,-0.85 0.88,-0.5 1.66,-1.04 2.36,-1.6 0.69,-0.57 1.73,-0.85 3.11,-0.85 1.63,0 2.89,0.52 3.77,1.56 0.88,1.04 1.32,2.31 1.32,3.82 0,1.57 -0.88,3 -2.64,4.29 -1.76,1.29 -4.07,2.32 -6.92,3.11 -2.86,0.78 -5.95,1.18 -9.28,1.18 -4.96,0 -9.26,-1.15 -12.91,-3.44 -3.64,-2.29 -6.45,-5.42 -8.43,-9.37 -1.98,-3.96 -2.97,-8.39 -2.97,-13.29 0,-5.15 1.05,-9.69 3.16,-13.61 2.1,-3.92 5.02,-7 8.76,-9.23 3.74,-2.23 8.02,-3.34 12.86,-3.34z"/>
  <path class="fil0" d="M637.02 203.18c1.63,0 2.98,0.55 4.05,1.65 1.07,1.1 1.6,2.47 1.6,4.1l0 40.04c0,5.78 -1.08,10.38 -3.25,13.8 -2.17,3.42 -5.07,5.89 -8.71,7.4 -3.64,1.51 -7.73,2.26 -12.25,2.26 -2.01,0 -4.15,-0.16 -6.41,-0.47 -2.26,-0.32 -4.11,-0.79 -5.56,-1.41 -1.88,-0.82 -3.19,-1.84 -3.91,-3.06 -0.72,-1.22 -0.86,-2.53 -0.42,-3.91 0.56,-1.82 1.47,-3.06 2.73,-3.72 1.26,-0.66 2.58,-0.74 3.96,-0.24 1,0.31 2.32,0.8 3.96,1.46 1.63,0.66 3.52,0.99 5.65,0.99 2.89,0 5.29,-0.39 7.21,-1.18 1.91,-0.79 3.36,-2.1 4.33,-3.96 0.97,-1.85 1.46,-4.38 1.46,-7.58l0 -6.31 1.98 2.26c-1.07,2.07 -2.4,3.78 -4,5.13 -1.6,1.35 -3.5,2.37 -5.7,3.06 -2.2,0.69 -4.71,1.04 -7.54,1.04 -3.33,0 -6.23,-0.77 -8.71,-2.31 -2.48,-1.54 -4.41,-3.67 -5.79,-6.41 -1.38,-2.73 -2.07,-5.85 -2.07,-9.37l0 -27.51c0,-1.63 0.53,-3 1.6,-4.1 1.07,-1.1 2.42,-1.65 4.05,-1.65 1.63,0 2.98,0.55 4.05,1.65 1.07,1.1 1.6,2.47 1.6,4.1l0 24.12c0,4.08 0.9,6.96 2.68,8.62 1.79,1.67 4.29,2.5 7.49,2.5 2.2,0 4.05,-0.42 5.56,-1.27 1.51,-0.85 2.67,-2.1 3.49,-3.77 0.82,-1.66 1.22,-3.69 1.22,-6.08l0 -24.12c0,-1.63 0.53,-3 1.6,-4.1 1.07,-1.1 2.42,-1.65 4.05,-1.65z"/>
  <path class="fil2" d="M697.59 254.52c-3.58,0 -6.91,-0.72 -9.99,-2.17 -3.08,-1.44 -5.59,-3.52 -7.54,-6.22 -0.75,-1.13 -1.13,-2.23 -1.13,-3.3 0,-1.57 0.61,-2.89 1.84,-3.96 1.23,-1.07 2.43,-1.6 3.63,-1.6 0.94,0 1.87,0.28 2.78,0.85 0.91,0.57 1.74,1.23 2.5,1.98 1.26,1.13 2.5,1.93 3.72,2.4 1.23,0.47 2.62,0.71 4.19,0.71 1.88,0 3.64,-0.47 5.28,-1.41 1.63,-0.94 2.95,-2.2 3.96,-3.77 1,-1.57 1.51,-3.26 1.51,-5.09l0 -39.57c0,-1.63 0.6,-3 1.79,-4.1 1.19,-1.1 2.57,-1.65 4.15,-1.65 1.76,0 3.17,0.55 4.24,1.65 1.07,1.1 1.6,2.47 1.6,4.1l0 39.57c0,3.83 -1.01,7.38 -3.02,10.65 -2.01,3.27 -4.71,5.9 -8.1,7.91 -3.39,2.01 -7.19,3.01 -11.4,3.01z"/>
  <path class="fil2" d="M765.33 254.52c-4.77,0 -9.23,-0.88 -13.38,-2.64 -4.15,-1.76 -7.79,-4.19 -10.93,-7.3 -3.14,-3.11 -5.61,-6.7 -7.4,-10.79 -1.79,-4.08 -2.69,-8.48 -2.69,-13.19 0,-4.71 0.9,-9.11 2.69,-13.19 1.79,-4.08 4.25,-7.68 7.4,-10.79 3.14,-3.11 6.78,-5.54 10.93,-7.3 4.15,-1.76 8.6,-2.64 13.38,-2.64 2.95,0 5.81,0.31 8.57,0.94 2.76,0.63 5.31,1.57 7.63,2.83 0.94,0.5 1.65,1.18 2.12,2.02 0.47,0.85 0.71,1.71 0.71,2.59 0,1.51 -0.5,2.86 -1.51,4.05 -1.01,1.19 -2.29,1.79 -3.86,1.79 -0.5,0 -1.02,-0.06 -1.55,-0.19 -0.53,-0.12 -1.05,-0.31 -1.56,-0.56 -1.57,-0.69 -3.23,-1.23 -4.99,-1.6 -1.76,-0.38 -3.61,-0.56 -5.56,-0.56 -4.08,0 -7.8,1.02 -11.16,3.06 -3.36,2.04 -6.03,4.77 -8.01,8.2 -1.98,3.42 -2.97,7.21 -2.97,11.35 0,4.08 0.99,7.85 2.97,11.3 1.98,3.45 4.65,6.2 8.01,8.24 3.36,2.04 7.08,3.06 11.16,3.06 1.88,0 3.96,-0.19 6.22,-0.56 2.26,-0.38 4.11,-0.88 5.56,-1.51l-0.85 2.83 0 -16.11 1.6 1.41 -10.46 0c-1.63,0 -3,-0.53 -4.1,-1.6 -1.1,-1.07 -1.65,-2.42 -1.65,-4.05 0,-1.63 0.55,-2.98 1.65,-4.05 1.1,-1.07 2.46,-1.6 4.1,-1.6l15.45 0c1.63,0 2.98,0.55 4.05,1.65 1.07,1.1 1.6,2.46 1.6,4.1l0 19.97c0,1.26 -0.3,2.29 -0.89,3.11 -0.6,0.82 -1.27,1.48 -2.02,1.98 -2.89,1.76 -6.05,3.16 -9.47,4.19 -3.42,1.04 -7.02,1.55 -10.79,1.55z"/>
 </g>
</svg>
